<?xml version="1.0" encoding="utf-8"?>
<!-- Generator: Adobe Illustrator 18.0.0, SVG Export Plug-In . SVG Version: 6.00 Build 0)  -->
<!DOCTYPE svg PUBLIC "-//W3C//DTD SVG 1.1//EN" "http://www.w3.org/Graphics/SVG/1.1/DTD/svg11.dtd">
<svg version="1.1" id="レイヤー_1" xmlns="http://www.w3.org/2000/svg" xmlns:xlink="http://www.w3.org/1999/xlink" x="0px"
	 y="0px" viewBox="0 0 512 512" enable-background="new 0 0 512 512" xml:space="preserve">
<path id="dashboard-5-icon" fill="#393B42" d="M393.7,260.2c-2.4-7.3-5.4-14.5-8.9-21.3l-42.1,19c3.7,6.8,6.7,13.9,8.9,21.3
	L393.7,260.2z M177.9,244.7c4.7-6.1,9.9-11.6,15.8-16.4l-32.4-33.8c-5.6,5-10.9,10.6-15.8,16.4L177.9,244.7z M207.3,218.7
	c6.5-3.8,13.4-6.8,20.6-9l-17.7-44.1c-7,2.4-13.9,5.5-20.6,9L207.3,218.7z M159.9,280.7c2.1-7.5,4.9-14.7,8.5-21.5L126.1,241
	c-3.4,6.9-6.2,14.1-8.5,21.5L159.9,280.7z M321.9,174.3c-6.6-3.5-13.6-6.5-20.6-8.9l-17.6,44.2c7.2,2.2,14.1,5.1,20.6,8.9
	L321.9,174.3z M366.5,210.9c-4.8-5.9-10.1-11.4-15.8-16.4l-32.4,33.8c5.8,4.8,11.1,10.4,15.8,16.4L366.5,210.9z M267.1,158.4
	c-3.8-0.3-7.5-0.4-11.2-0.4s-7.4,0.1-11.2,0.4v47.8c3.7-0.4,7.4-0.6,11.2-0.6s7.5,0.2,11.2,0.6V158.4z M256,395
	c-22.2,0-40.2-18-40.2-40.2c0-15.2,8.4-28.4,20.8-35.2l19.4-91.1l19.4,91.1c12.4,6.9,20.8,20.1,20.8,35.2
	C296.2,377,278.2,395,256,395z M77.6,404.5C60.1,374.2,50,339,50,301.5c0-113.6,92.4-206,206-206s206,92.4,206,206
	c0,37.5-10.1,72.7-27.6,103l-34.7-20.1c14.1-24.4,22.3-52.7,22.3-82.9c0-91.5-74.4-165.9-165.9-165.9S90.1,210,90.1,301.5
	c0,30.2,8.1,58.5,22.3,82.9L77.6,404.5z"/>
</svg>
