<?xml version="1.0" encoding="utf-8"?>
<!-- Generator: Adobe Illustrator 18.0.0, SVG Export Plug-In . SVG Version: 6.00 Build 0)  -->
<!DOCTYPE svg PUBLIC "-//W3C//DTD SVG 1.1//EN" "http://www.w3.org/Graphics/SVG/1.1/DTD/svg11.dtd">
<svg version="1.1" id="レイヤー_1" xmlns="http://www.w3.org/2000/svg" xmlns:xlink="http://www.w3.org/1999/xlink" x="0px"
	 y="0px" viewBox="0 0 512 512" enable-background="new 0 0 512 512" xml:space="preserve">
<path id="refresh-3-icon" fill="#393B42" d="M373.2,142.6L336,179.8c-20.2-20.2-48.2-32.7-79-32.7c-61.7,0-111.8,50.1-111.8,111.8
	c0,0,0,0,0,0h43.4l-69.3,69.3L50,258.9h42.5c0,0,0,0,0,0c0-90.8,73.6-164.5,164.4-164.5C302.4,94.4,343.5,112.8,373.2,142.6z
	 M462,253.1l-69.3-69.3l-69.3,69.3h43.4c0,0,0,0,0,0c0,61.7-50,111.8-111.8,111.8c-30.9,0-58.8-12.5-79-32.7l-37.3,37.3
	c29.8,29.8,70.9,48.2,116.3,48.2c90.8,0,164.4-73.6,164.4-164.5c0,0,0,0,0,0L462,253.1L462,253.1z"/>
</svg>
