<?xml version="1.0" encoding="utf-8"?>
<!-- Generator: Adobe Illustrator 18.0.0, SVG Export Plug-In . SVG Version: 6.00 Build 0)  -->
<!DOCTYPE svg PUBLIC "-//W3C//DTD SVG 1.1//EN" "http://www.w3.org/Graphics/SVG/1.1/DTD/svg11.dtd">
<svg version="1.1" id="レイヤー_1" xmlns="http://www.w3.org/2000/svg" xmlns:xlink="http://www.w3.org/1999/xlink" x="0px"
	 y="0px" viewBox="0 0 512 512" enable-background="new 0 0 512 512" xml:space="preserve">
<path id="server-7-icon" fill="#393B42" d="M70,50v288.5h373.2V50H70z M405.1,300.4H108.1l0-212.3h296.9V300.4z M240,195.3
	l-57.2,53.3l-20.7-19.1l36.8-34.2L162,161l20.7-19.1L240,195.3z M341.4,221.2h-85.5v26.5h85.5V221.2z M443.2,368.2H68.8V462h374.4
	L443.2,368.2L443.2,368.2z M93.7,435.7l16.5-41.2h19.9l-16.5,41.2H93.7z M125.9,435.7l16.5-41.2h19.9l-16.5,41.2H125.9z
	 M158.2,435.7l16.5-41.2h19.9l-16.5,41.2H158.2z M190.4,435.7l16.5-41.2h19.9l-16.5,41.2H190.4z M242.5,435.7h-19.9l16.5-41.2H259
	L242.5,435.7z M398.7,428.8c-7.6,0-13.7-6.2-13.7-13.7c0-7.6,6.2-13.7,13.7-13.7c7.6,0,13.7,6.2,13.7,13.7
	C412.5,422.7,406.3,428.8,398.7,428.8z"/>
</svg>
