<svg xmlns="http://www.w3.org/2000/svg" width="100" height="100" viewBox="0 0 100 100"><defs><style>.a,.b{fill:none;}.b{stroke:#6162b7;stroke-linecap:round;stroke-linejoin:round;stroke-width:2px;}</style></defs><title>page</title><rect class="a" width="100" height="100"/><path class="b" d="M39.5,26.4h22A3.5,3.5,0,0,1,65,29.9v47a3.5,3.5,0,0,1-3.5,3.5h-32A3.5,3.5,0,0,1,26,76.9V39.8a3.9,3.9,0,0,1,1-2.5l10-9.9A3.2,3.2,0,0,1,39.5,26.4Z"/><path class="b" d="M42,23.4l4-4a3.2,3.2,0,0,1,2.5-1h22A3.5,3.5,0,0,1,74,21.9v47a3.5,3.5,0,0,1-3.5,3.5H68.3"/><path class="b" d="M26.7,38.4h7.8A3.5,3.5,0,0,0,38,34.9V27.1"/></svg>