<svg xmlns="http://www.w3.org/2000/svg" width="100" height="100" viewBox="0 0 100 100"><defs><style>.a{fill:#6162b7;}.b{fill:none;}</style></defs><title>prefix</title><path class="a" d="M19.2,49H12.7c-.2,0-1-.1-1,1s.5,1,1,1h6.5c.3,0,1,0,1-1S19.4,49,19.2,49Z"/><path class="a" d="M38,42a10.6,10.6,0,0,0-3.8.7h-.6a9.6,9.6,0,0,0-4.1-.7,15.8,15.8,0,0,0-4.5.6c-.9.3-1,.9-1,1.8V58.7c0,.6-.1,1.4,1,1.4s1-.8,1-1.4V45.5c0-.8.2-.8.3-.9a10,10,0,0,1,3.1-.4c3,0,3.6.7,3.6,1.4V58.7c0,.6-.1,1.4,1,1.4s1-.8,1-1.4V45.5c0-.8.2-.8.4-.9a9.1,9.1,0,0,1,2.7-.4c3,0,3.9.8,3.9,3.6V58.7c0,.6-.1,1.4,1,1.4s1-.8,1-1.4V47.5C44,43,41.7,42,38,42Z"/><path class="a" d="M55.6,42c-5.2,0-7,2.4-7,9.6s2.8,8.6,6.9,8.6,6.9-2.3,6.9-9.4S60.6,42,55.6,42Zm0,16c-3.3,0-4.5-.6-4.5-6.9s.9-6.9,4.5-6.9,4.3.6,4.3,6.9S58.9,58,55.6,58Z"/><path class="a" d="M76.1,58H68.4l7.7-12.3a3.7,3.7,0,0,0,.5-1.7c0-1.2-.6-2-1.8-2H67.2c-.5,0-1,.7-1,1.5a1.5,1.5,0,0,0,1,1.5h6.7L65.8,57.5a1.8,1.8,0,0,0-.3,1.1A1.3,1.3,0,0,0,66.9,60h9.2c.3,0,1,0,1-1A.9.9,0,0,0,76.1,58Z"/><path class="a" d="M86.7,49H80.3c-.3,0-1-.1-1,1s.5,1,1,1h6.4c.3,0,1,0,1-1S87,49,86.7,49Z"/><rect class="b" width="100" height="100"/></svg>