<svg xmlns="http://www.w3.org/2000/svg" width="100" height="100" viewBox="0 0 100 100"><defs><style>.a,.b{fill:none;}.a{stroke:#6162b7;stroke-linecap:round;stroke-linejoin:round;stroke-width:2px;}</style></defs><title>scss</title><path class="a" d="M47.1,59a10.6,10.6,0,0,1-21.2,0,10.6,10.6,0,0,1,21.2,0Z"/><path class="a" d="M75.4,59A10.6,10.6,0,1,1,64.8,48.4,10.6,10.6,0,0,1,75.4,59Z"/><line class="a" x1="75.4" y1="59" x2="77.7" y2="59"/><polyline class="a" points="25.9 59 23.6 59 28.3 29.6 33 30.8"/><polyline class="a" points="77.7 59 73 29.6 68.3 30.8"/><path class="a" d="M47.1,56.7a3.6,3.6,0,1,1,7.1,0"/><rect class="b" width="100" height="100"/></svg>