<svg xmlns="http://www.w3.org/2000/svg" width="100" height="100" viewBox="0 0 100 100"><defs><style>.a,.b,.c{fill:none;}.b,.c{stroke:#6162b7;stroke-linecap:round;stroke-linejoin:round;}.b{stroke-width:2px;}</style></defs><title>server</title><rect class="a" width="100" height="100"/><path class="b" d="M74,71.6H26a2.8,2.8,0,0,1-3-2.7V31.6a3,3,0,0,1,3-3H74a3,3,0,0,1,3,3V68.9A2.8,2.8,0,0,1,74,71.6Z"/><line class="c" x1="23" y1="41.5" x2="76.7" y2="41.5"/><circle class="c" cx="30.6" cy="35.1" r="1.6"/><circle class="c" cx="37" cy="35.1" r="1.6"/><circle class="c" cx="43.4" cy="35.1" r="1.6"/><polyline class="b" points="29.3 47.7 34 52.4 29.3 57"/><line class="b" x1="36.7" y1="57.2" x2="42" y2="57.2"/></svg>