<?xml version="1.0" encoding="utf-8"?>
<!-- Generator: Adobe Illustrator 18.0.0, SVG Export Plug-In . SVG Version: 6.00 Build 0)  -->
<!DOCTYPE svg PUBLIC "-//W3C//DTD SVG 1.1//EN" "http://www.w3.org/Graphics/SVG/1.1/DTD/svg11.dtd">
<svg version="1.1" id="レイヤー_1" xmlns="http://www.w3.org/2000/svg" xmlns:xlink="http://www.w3.org/1999/xlink" x="0px"
	 y="0px" viewBox="0 0 512 512" enable-background="new 0 0 512 512" xml:space="preserve">
<path id="compass-7-icon" fill="#393B42" d="M256,90c91.7,0,166,74.2,166,166c0,91.7-74.2,166-166,166c-91.7,0-166-74.2-166-166
	C90,164.3,164.2,90,256,90 M256,50C142.2,50,50,142.2,50,256s92.2,206,206,206s206-92.2,206-206S369.8,50,256,50z M197.7,216.5
	l-28.4-47.1l47.2,28.4C209.1,202.7,202.7,209.1,197.7,216.5z M296.7,198.6c6.5,4.6,12.1,10.2,16.7,16.6l29.2-45.9L296.7,198.6z
	 M198.3,297.2l-29,45.5l45.4-28.9C208.4,309.2,202.8,303.6,198.3,297.2z M296,314.6l46.7,28.1l-28.1-46.7
	C309.6,303.3,303.3,309.6,296,314.6z M400.2,256L301,278c-4.4,8.9-11.3,16.3-19.9,21.3L256,400.2l-25.1-100.9
	c-8.5-5-15.5-12.4-19.9-21.3l-99.2-22l99.2-22c4.4-8.9,11.3-16.3,19.9-21.3L256,111.8l25.1,100.9c8.5,5,15.5,12.4,19.9,21.3
	L400.2,256z M278.4,256c0-12.4-10-22.4-22.4-22.4s-22.4,10-22.4,22.4c0,12.4,10,22.4,22.4,22.4S278.4,268.4,278.4,256z"/>
</svg>
