<?xml version="1.0" encoding="utf-8"?>
<!-- Generator: Adobe Illustrator 19.1.0, SVG Export Plug-In . SVG Version: 6.00 Build 0)  -->
<svg version="1.1" id="レイヤー_1" xmlns="http://www.w3.org/2000/svg" xmlns:xlink="http://www.w3.org/1999/xlink" x="0px"
	 y="0px" viewBox="0 0 100 100" style="enable-background:new 0 0 100 100;" xml:space="preserve">
<style type="text/css">
	.st0{fill:none;stroke:#231F20;stroke-width:2;stroke-linecap:round;stroke-linejoin:round;stroke-miterlimit:10;}
</style>
<g>
	<path class="st0" d="M27.7,29.6h-6.5c-1.2,0-2.2-1-2.2-2.2v-6.5c0-1.2,1-2.2,2.2-2.2h6.5c1.2,0,2.2,1,2.2,2.2v6.5
		C29.9,28.6,28.9,29.6,27.7,29.6z"/>
	<path class="st0" d="M78.8,29.6h-6.5c-1.2,0-2.2-1-2.2-2.2v-6.5c0-1.2,1-2.2,2.2-2.2h6.5c1.2,0,2.2,1,2.2,2.2v6.5
		C81,28.6,80,29.6,78.8,29.6z"/>
	<path class="st0" d="M27.7,80.7h-6.5c-1.2,0-2.2-1-2.2-2.2v-6.5c0-1.2,1-2.2,2.2-2.2h6.5c1.2,0,2.2,1,2.2,2.2v6.5
		C29.9,79.7,28.9,80.7,27.7,80.7z"/>
	<path class="st0" d="M78.8,80.7h-6.5c-1.2,0-2.2-1-2.2-2.2v-6.5c0-1.2,1-2.2,2.2-2.2h6.5c1.2,0,2.2,1,2.2,2.2v6.5
		C81,79.7,80,80.7,78.8,80.7z"/>
	<line class="st0" x1="30" y1="23.7" x2="70" y2="23.7"/>
	<line class="st0" x1="24" y1="69.7" x2="24" y2="29.7"/>
	<line class="st0" x1="70" y1="75.7" x2="30" y2="75.7"/>
	<line class="st0" x1="75" y1="29.7" x2="75" y2="69.7"/>
</g>
</svg>
