<?xml version="1.0" encoding="utf-8"?>
<!-- Generator: Adobe Illustrator 18.1.1, SVG Export Plug-In . SVG Version: 6.00 Build 0)  -->
<!DOCTYPE svg PUBLIC "-//W3C//DTD SVG 1.1//EN" "http://www.w3.org/Graphics/SVG/1.1/DTD/svg11.dtd">
<svg version="1.1" id="レイヤー_1" xmlns="http://www.w3.org/2000/svg" xmlns:xlink="http://www.w3.org/1999/xlink" x="0px"
	 y="0px" viewBox="0 0 205.7 192.3" enable-background="new 0 0 205.7 192.3" xml:space="preserve">
<g>
	<path fill="#FFFFFF" d="M67.4,132.8c8.3-10,12.4-15.5,17.1-19.7c4.7-4.1,13.5-11.9,21.2-9.3c7.8,2.6,16.6,8.8,23.8,22.3
		c7.2,13.5,22.8,22.3,30.5,24.9s19.2,15,13.5,23.3c-5.7,8.3-8.3,14.5-21.7,14c-13.5-0.5-38.9-6.7-49-6.2
		c-10,0.5-31.8,10.4-41.6,10.4s-28.5-16.6-22.8-31.1C44.1,146.7,59.1,142.8,67.4,132.8z"/>
	<path fill="#FFFFFF" d="M196.8,72.2c10.9,7.2,12.9,28,0,45c-12.9,17.1-21.7,25.9-33.7,18.6c-11.9-7.2-12.4-35.2,0-49.2
		C175.6,72.7,185.9,64.9,196.8,72.2z"/>
	<path fill="#FFFFFF" d="M141.9,0.1c15.7-2.1,26.9,26,22.3,41.5s-11.4,36.2-25.9,34.7c-14.5-1.6-26.9-24.3-24.9-47.6
		C115.5,5.4,128.3,1.9,141.9,0.1z"/>
	<path fill="#FFFFFF" d="M63.2,2.4c12.9-3.7,23.3,1.4,25.4,17s0,56.1-17.1,57s-29.5-23.9-29-42S50.9,5.9,63.2,2.4z"/>
	<path fill="#FFFFFF" d="M22.8,69.4c10.9-3.4,26.3,18.3,25.9,33.8c-0.3,12.7-8.8,35.1-20.7,35.2s-29-19.6-28-35.7S12,72.9,22.8,69.4
		z"/>
</g>
</svg>
