<svg xmlns="http://www.w3.org/2000/svg" viewBox="0 0 205.7 192.3" enable-background="new 0 0 205.7 192.3"><g fill="#fff"><path d="M67.4 132.8c8.3-10 12.4-15.5 17.1-19.7 4.7-4.1 13.5-11.9 21.2-9.3 7.8 2.6 16.6 8.8 23.8 22.3 7.2 13.5 22.8 22.3 30.5 24.9s19.2 15 13.5 23.3c-5.7 8.3-8.3 14.5-21.7 14-13.5-.5-38.9-6.7-49-6.2-10 .5-31.8 10.4-41.6 10.4s-28.5-16.6-22.8-31.1c5.7-14.7 20.7-18.6 29-28.6zM196.8 72.2c10.9 7.2 12.9 28 0 45-12.9 17.1-21.7 25.9-33.7 18.6-11.9-7.2-12.4-35.2 0-49.2 12.5-13.9 22.8-21.7 33.7-14.4zM141.9.1c15.7-2.1 26.9 26 22.3 41.5s-11.4 36.2-25.9 34.7c-14.5-1.6-26.9-24.3-24.9-47.6C115.5 5.4 128.3 1.9 141.9.1zM63.2 2.4c12.9-3.7 23.3 1.4 25.4 17s0 56.1-17.1 57-29.5-23.9-29-42 8.4-28.5 20.7-32zM22.8 69.4c10.9-3.4 26.3 18.3 25.9 33.8-.3 12.7-8.8 35.1-20.7 35.2s-29-19.6-28-35.7 12-29.8 22.8-33.3z"/></g></svg>