<?xml version="1.0" encoding="utf-8"?>
<!-- Generator: Adobe Illustrator 19.1.0, SVG Export Plug-In . SVG Version: 6.00 Build 0)  -->
<svg version="1.1" id="レイヤー_1" xmlns="http://www.w3.org/2000/svg" xmlns:xlink="http://www.w3.org/1999/xlink" x="0px"
	 y="0px" viewBox="0 0 100 100" style="enable-background:new 0 0 100 100;" xml:space="preserve">
<style type="text/css">
	.st0{fill:none;stroke:#000000;stroke-width:2;stroke-linecap:round;stroke-miterlimit:10;}
</style>
<g>
	<path class="st0" d="M39.5,26.4h22c1.9,0,3.5,1.6,3.5,3.5v47c0,1.9-1.6,3.5-3.5,3.5h-32c-1.9,0-3.5-1.6-3.5-3.5v-37
		c0-0.9,0.4-1.8,1-2.5l9.9-9.9C37.6,26.7,38.5,26.4,39.5,26.4z"/>
	<path class="st0" d="M42,23.4l4-4c0.7-0.7,1.6-1,2.5-1h22c1.9,0,3.5,1.6,3.5,3.5v47c0,1.9-1.6,3.5-3.5,3.5h-2.1"/>
	<path class="st0" d="M26.7,38.4h7.8c1.9,0,3.5-1.6,3.5-3.5v-7.7"/>
</g>
</svg>
