<svg xmlns="http://www.w3.org/2000/svg" width="100" height="100" viewBox="0 0 100 100"><defs><style>.a{fill:#6162b7}.b{fill:none}</style></defs><title>prefix</title><path class="a" d="M19.2 49h-6.5c-.2 0-1-.1-1 1s.5 1 1 1h6.5c.3 0 1 0 1-1s-.8-1-1-1zM38 42a10.6 10.6 0 0 0-3.8.7h-.6a9.6 9.6 0 0 0-4.1-.7 15.8 15.8 0 0 0-4.5.6c-.9.3-1 .9-1 1.8v14.3c0 .6-.1 1.4 1 1.4s1-.8 1-1.4V45.5c0-.8.2-.8.3-.9a10 10 0 0 1 3.1-.4c3 0 3.6.7 3.6 1.4v13.1c0 .6-.1 1.4 1 1.4s1-.8 1-1.4V45.5c0-.8.2-.8.4-.9a9.1 9.1 0 0 1 2.7-.4c3 0 3.9.8 3.9 3.6v10.9c0 .6-.1 1.4 1 1.4s1-.8 1-1.4V47.5c0-4.5-2.3-5.5-6-5.5zm17.6 0c-5.2 0-7 2.4-7 9.6s2.8 8.6 6.9 8.6 6.9-2.3 6.9-9.4-1.8-8.8-6.8-8.8zm0 16c-3.3 0-4.5-.6-4.5-6.9s.9-6.9 4.5-6.9 4.3.6 4.3 6.9-1 6.9-4.3 6.9zm20.5 0h-7.7l7.7-12.3a3.7 3.7 0 0 0 .5-1.7c0-1.2-.6-2-1.8-2h-7.6c-.5 0-1 .7-1 1.5a1.5 1.5 0 0 0 1 1.5h6.7l-8.1 12.5a1.8 1.8 0 0 0-.3 1.1 1.3 1.3 0 0 0 1.4 1.4h9.2c.3 0 1 0 1-1a.9.9 0 0 0-1-1zm10.6-9h-6.4c-.3 0-1-.1-1 1s.5 1 1 1h6.4c.3 0 1 0 1-1s-.7-1-1-1z"/><path class="b" d="M0 0h100v100H0z"/></svg>