<?xml version="1.0" encoding="utf-8"?>
<!-- Generator: Adobe Illustrator 19.1.0, SVG Export Plug-In . SVG Version: 6.00 Build 0)  -->
<svg version="1.1" id="レイヤー_1" xmlns="http://www.w3.org/2000/svg" xmlns:xlink="http://www.w3.org/1999/xlink" x="0px"
	 y="0px" viewBox="0 0 100 100" style="enable-background:new 0 0 100 100;" xml:space="preserve">
<g>
	<path d="M3.8,50.4c-0.5,0-0.6-0.2-0.6-0.8c0-0.5,0.2-0.8,0.6-0.8h8.1c0.5,0,0.6,0.3,0.6,0.8c0,0.5-0.2,0.8-0.6,0.8H3.8z"/>
	<path d="M42.8,60.3c0,0.9-0.2,1.1-0.9,1.1c-0.7,0-0.9-0.2-0.9-1.1V46.7c0-3.7-1.2-5.1-5.4-5.1c-1.2,0-2.8,0.2-3.6,0.5
		c-0.5,0.2-0.7,0.5-0.7,1.6v16.5c0,0.9-0.2,1.1-0.9,1.1c-0.7,0-0.9-0.2-0.9-1.1V44c0-1.9-2.1-2.3-4.9-2.3c-1.4,0-3.2,0.1-3.9,0.5
		c-0.5,0.3-0.6,0.6-0.6,1.7v16.5c0,0.9-0.2,1.1-0.9,1.1c-0.7,0-0.9-0.2-0.9-1.1V42.5c0-1.2,0.3-1.5,1-1.7c1.9-0.5,3.9-0.7,5.5-0.7
		c1.9,0,3.6,0.2,5,0.8c0.2,0.1,0.4,0.2,0.6,0.2s0.5-0.1,0.7-0.2c1.5-0.6,3.4-0.8,4.7-0.8c5,0,7.2,1.5,7.2,6.3V60.3z"/>
	<path d="M57.3,40.1c6.1,0,7.9,2.7,7.9,10.3c0,9.3-2.4,11.2-8,11.2c-5.1,0-8-1.9-8-10.2C49.2,42.6,51.3,40.1,57.3,40.1z M57.3,41.6
		c-5.3,0-6.2,1.5-6.2,9.1c0,8.2,1.6,9.3,6.2,9.3c4.6,0,6-1.1,6-9.3C63.4,43,61.9,41.6,57.3,41.6z"/>
	<path d="M80.9,42.8c0.1-0.1,0.1-0.3,0.1-0.4c0-0.2-0.3-0.3-0.6-0.3h-8.6c-0.5,0-0.6-0.3-0.6-0.7s0.1-0.8,0.6-0.8h9.5
		c1.2,0,1.5,0.6,1.5,1.5c0,0.6-0.2,1.1-0.5,1.5l-9.8,15.4c-0.1,0.2-0.2,0.3-0.2,0.5c0,0.2,0.1,0.3,0.5,0.3h10c0.5,0,0.6,0.4,0.6,0.7
		c0,0.5-0.1,0.8-0.6,0.8H71.4c-0.8,0-1-0.7-1-1.2c0-0.4,0.1-0.8,0.3-1.1L80.9,42.8z"/>
	<path d="M88.1,50.4c-0.5,0-0.6-0.2-0.6-0.8c0-0.5,0.2-0.8,0.6-0.8h8.1c0.5,0,0.6,0.3,0.6,0.8c0,0.5-0.2,0.8-0.6,0.8H88.1z"/>
</g>
</svg>
