<svg xmlns="http://www.w3.org/2000/svg" width="100" height="100" viewBox="0 0 100 100"><defs><style>.a,.b{fill:none}.a{stroke:#6162b7;stroke-linecap:round;stroke-linejoin:round;stroke-width:2px}</style></defs><title>scss</title><path class="a" d="M47.1 59a10.6 10.6 0 0 1-21.2 0 10.6 10.6 0 0 1 21.2 0zm28.3 0a10.6 10.6 0 1 1-10.6-10.6A10.6 10.6 0 0 1 75.4 59zm0 0h2.3"/><path class="a" d="M25.9 59h-2.3l4.7-29.4 4.7 1.2M77.7 59L73 29.6l-4.7 1.2M47.1 56.7a3.6 3.6 0 1 1 7.1 0"/><path class="b" d="M0 0h100v100H0z"/></svg>