<svg xmlns="http://www.w3.org/2000/svg" width="100" height="100" viewBox="0 0 100 100"><defs><style>.a,.b,.c{fill:none}.b,.c{stroke:#6162b7;stroke-linecap:round;stroke-linejoin:round}.b{stroke-width:2px}</style></defs><title>server</title><path class="a" d="M0 0h100v100H0z"/><path class="b" d="M74 71.6H26a2.8 2.8 0 0 1-3-2.7V31.6a3 3 0 0 1 3-3h48a3 3 0 0 1 3 3v37.3a2.8 2.8 0 0 1-3 2.7z"/><path class="c" d="M23 41.5h53.7"/><circle class="c" cx="30.6" cy="35.1" r="1.6"/><circle class="c" cx="37" cy="35.1" r="1.6"/><circle class="c" cx="43.4" cy="35.1" r="1.6"/><path class="b" d="M29.3 47.7l4.7 4.7-4.7 4.6m7.4.2H42"/></svg>