<svg xmlns="http://www.w3.org/2000/svg" viewBox="0 0 512 512" enable-background="new 0 0 512 512"><path fill="#393B42" d="M256 90c91.7 0 166 74.2 166 166 0 91.7-74.2 166-166 166-91.7 0-166-74.2-166-166 0-91.7 74.2-166 166-166m0-40C142.2 50 50 142.2 50 256s92.2 206 206 206 206-92.2 206-206S369.8 50 256 50zm-58.3 166.5l-28.4-47.1 47.2 28.4c-7.4 4.9-13.8 11.3-18.8 18.7zm99-17.9c6.5 4.6 12.1 10.2 16.7 16.6l29.2-45.9-45.9 29.3zm-98.4 98.6l-29 45.5 45.4-28.9c-6.3-4.6-11.9-10.2-16.4-16.6zm97.7 17.4l46.7 28.1-28.1-46.7c-5 7.3-11.3 13.6-18.6 18.6zM400.2 256L301 278c-4.4 8.9-11.3 16.3-19.9 21.3L256 400.2l-25.1-100.9c-8.5-5-15.5-12.4-19.9-21.3l-99.2-22 99.2-22c4.4-8.9 11.3-16.3 19.9-21.3L256 111.8l25.1 100.9c8.5 5 15.5 12.4 19.9 21.3l99.2 22zm-121.8 0c0-12.4-10-22.4-22.4-22.4s-22.4 10-22.4 22.4c0 12.4 10 22.4 22.4 22.4s22.4-10 22.4-22.4z"/></svg>