<svg xmlns="http://www.w3.org/2000/svg" viewBox="0 0 100 100" enable-background="new 0 0 100 100"><style type="text/css">.st0{fill:none;stroke:#231F20;stroke-width:2;stroke-linecap:round;stroke-linejoin:round;stroke-miterlimit:10;}</style><path class="st0" d="M27.7 29.6h-6.5c-1.2 0-2.2-1-2.2-2.2v-6.5c0-1.2 1-2.2 2.2-2.2h6.5c1.2 0 2.2 1 2.2 2.2v6.5c0 1.2-1 2.2-2.2 2.2zM78.8 29.6h-6.5c-1.2 0-2.2-1-2.2-2.2v-6.5c0-1.2 1-2.2 2.2-2.2h6.5c1.2 0 2.2 1 2.2 2.2v6.5c0 1.2-1 2.2-2.2 2.2zM27.7 80.7h-6.5c-1.2 0-2.2-1-2.2-2.2V72c0-1.2 1-2.2 2.2-2.2h6.5c1.2 0 2.2 1 2.2 2.2v6.5c0 1.2-1 2.2-2.2 2.2zM78.8 80.7h-6.5c-1.2 0-2.2-1-2.2-2.2V72c0-1.2 1-2.2 2.2-2.2h6.5c1.2 0 2.2 1 2.2 2.2v6.5c0 1.2-1 2.2-2.2 2.2zM30 23.7h40M24 69.7v-40M70 75.7H30M75 29.7v40"/></svg>