<svg xmlns="http://www.w3.org/2000/svg" width="100" height="100" viewBox="0 0 100 100"><defs><style>.a,.b{fill:none}.b{stroke:#6162b7;stroke-linecap:round;stroke-linejoin:round;stroke-width:2px}</style></defs><title>page</title><path class="a" d="M0 0h100v100H0z"/><path class="b" d="M39.5 26.4h22a3.5 3.5 0 0 1 3.5 3.5v47a3.5 3.5 0 0 1-3.5 3.5h-32a3.5 3.5 0 0 1-3.5-3.5V39.8a3.9 3.9 0 0 1 1-2.5l10-9.9a3.2 3.2 0 0 1 2.5-1z"/><path class="b" d="M42 23.4l4-4a3.2 3.2 0 0 1 2.5-1h22a3.5 3.5 0 0 1 3.5 3.5v47a3.5 3.5 0 0 1-3.5 3.5h-2.2m-41.6-34h7.8a3.5 3.5 0 0 0 3.5-3.5v-7.8"/></svg>