<svg xmlns="http://www.w3.org/2000/svg" viewBox="0 0 100 100" enable-background="new 0 0 100 100"><style type="text/css">.st0{fill:none;stroke:#000000;stroke-width:2;stroke-linecap:round;stroke-miterlimit:10;}</style><path class="st0" d="M39.5 26.4h22c1.9 0 3.5 1.6 3.5 3.5v47c0 1.9-1.6 3.5-3.5 3.5h-32c-1.9 0-3.5-1.6-3.5-3.5v-37c0-.9.4-1.8 1-2.5l9.9-9.9c.7-.8 1.6-1.1 2.6-1.1zM42 23.4l4-4c.7-.7 1.6-1 2.5-1h22c1.9 0 3.5 1.6 3.5 3.5v47c0 1.9-1.6 3.5-3.5 3.5h-2.1M26.7 38.4h7.8c1.9 0 3.5-1.6 3.5-3.5v-7.7"/></svg>